<?xml version="1.0" standalone="no"?>
<!DOCTYPE svg PUBLIC "-//W3C//DTD SVG 20010904//EN"
 "http://www.w3.org/TR/2001/REC-SVG-20010904/DTD/svg10.dtd">
<svg version="1.0" xmlns="http://www.w3.org/2000/svg"
 width="941.000000pt" height="941.000000pt" viewBox="0 0 941.000000 941.000000"
 preserveAspectRatio="xMidYMid meet">
<metadata>
Created by potrace 1.14, written by Peter Selinger 2001-2017
</metadata>
<g transform="translate(0.000000,941.000000) scale(0.100000,-0.100000)"
fill="#000000" stroke="none">
<path d="M8192 9370 c-2 -29 1 -38 10 -35 10 4 12 -11 11 -61 -2 -49 1 -70 13
-82 11 -10 15 -29 12 -59 -2 -23 0 -43 4 -43 5 0 8 -13 8 -29 0 -16 5 -42 10
-56 6 -15 11 -45 12 -66 1 -22 5 -42 10 -45 4 -3 6 -9 3 -13 -7 -12 16 -134
28 -149 6 -8 7 -16 1 -22 -17 -17 20 -325 41 -350 7 -8 16 -45 20 -82 3 -37
10 -70 15 -73 4 -3 6 -14 3 -25 -3 -11 0 -26 6 -33 6 -8 8 -17 4 -20 -3 -4 2
-9 11 -13 13 -5 16 -20 16 -74 0 -38 5 -72 10 -75 6 -3 10 -19 10 -36 0 -16 3
-29 8 -29 4 0 17 -21 30 -47 19 -41 21 -55 13 -95 -7 -43 -7 -69 2 -118 4 -25
35 -64 54 -66 21 -3 103 33 103 46 0 6 7 10 15 10 8 0 15 5 15 10 0 6 5 10 10
10 6 0 22 8 37 17 14 9 35 18 46 18 12 1 23 7 25 13 2 7 19 19 38 28 19 9 34
23 34 31 0 8 4 11 10 8 5 -3 25 8 42 24 18 17 39 31 45 31 7 0 25 14 40 31 16
17 60 47 98 66 102 50 112 57 107 71 -2 7 6 12 22 12 14 0 26 3 26 8 0 4 19 6
43 5 32 -2 37 -1 22 6 -17 8 -16 10 12 10 68 2 63 -58 63 697 l0 684 -607 0
-608 0 -3 -40z"/>
<path d="M5053 8063 c-7 -2 -13 -11 -13 -20 0 -23 -33 -73 -47 -73 -7 0 -13
-7 -13 -15 0 -8 -4 -15 -10 -15 -5 0 -10 -10 -10 -23 0 -13 -4 -27 -10 -33 -5
-5 -13 -49 -16 -97 -5 -60 -10 -85 -17 -78 -15 15 -37 -6 -37 -34 0 -16 -8
-25 -25 -29 -14 -4 -25 -11 -25 -16 0 -6 -7 -10 -15 -10 -8 0 -15 -4 -15 -10
0 -5 -6 -10 -13 -10 -18 0 -47 -37 -47 -59 0 -10 -7 -24 -15 -31 -8 -7 -12
-16 -9 -22 3 -5 -6 -20 -21 -34 -21 -19 -25 -30 -20 -47 4 -12 9 -33 10 -47 2
-25 13 -72 21 -100 5 -13 6 -13 14 0 7 10 10 11 10 3 0 -7 7 -13 15 -13 13 0
14 -4 4 -21 -14 -27 1 -45 27 -31 24 14 68 -6 53 -24 -8 -9 -5 -11 9 -7 14 3
22 -1 27 -16 8 -28 -3 -61 -21 -61 -22 0 -18 -69 7 -109 20 -33 20 -33 86 -29
45 3 69 9 77 20 9 13 21 14 54 8 45 -8 61 0 38 19 -10 8 -16 9 -21 1 -8 -12
-45 -13 -45 -1 0 5 10 12 23 14 21 4 21 4 1 6 -12 0 -25 9 -28 18 -4 10 -4 14
0 11 4 -4 15 -3 25 3 13 6 25 6 39 -1 27 -14 26 2 0 39 -18 24 -20 36 -14 94
7 72 16 83 32 40 9 -24 10 -19 6 25 -2 30 0 52 6 52 6 0 10 -4 10 -10 0 -5 7
-10 15 -10 8 0 15 7 15 15 0 8 -4 15 -10 15 -5 0 -10 5 -10 11 0 7 10 9 25 5
14 -4 25 -2 25 3 0 6 14 18 30 28 17 9 30 25 30 35 0 10 5 18 10 18 6 0 10 -7
10 -17 0 -9 3 -13 6 -10 4 3 -1 22 -10 42 -14 29 -20 34 -31 25 -11 -9 -16 -7
-25 10 -6 11 -8 25 -5 30 3 5 1 18 -4 27 -8 14 -10 15 -11 3 0 -8 -7 -2 -15
14 -19 37 -20 36 14 36 33 0 41 14 41 71 0 25 -7 46 -18 57 -24 24 -35 63 -16
55 9 -3 14 2 14 16 0 12 -4 21 -10 21 -5 0 -10 11 -10 24 0 13 -7 26 -15 30
-8 3 -15 14 -15 25 0 11 -5 21 -10 23 -12 4 -14 49 -4 96 8 40 -8 62 -47 62
-16 0 -29 5 -29 10 0 11 -7 12 -27 3z m17 -874 c0 -11 -4 -17 -10 -14 -5 3
-10 15 -10 26 0 11 5 17 10 14 6 -3 10 -15 10 -26z m-110 -209 c0 -5 -18 -10
-40 -10 -22 0 -40 5 -40 10 0 6 18 10 40 10 22 0 40 -4 40 -10z"/>
<path d="M6223 7320 c-13 -5 -32 -24 -43 -42 -11 -18 -20 -27 -20 -20 0 8 -17
12 -50 12 -27 0 -50 -4 -50 -10 0 -5 -13 -10 -30 -10 -16 0 -30 -4 -30 -8 0
-5 -22 -33 -50 -62 -27 -29 -50 -60 -50 -68 0 -10 -7 -12 -25 -8 -19 5 -27 2
-32 -11 -11 -28 -54 -63 -78 -63 -23 0 -65 -38 -65 -59 0 -8 -6 -11 -15 -7 -8
3 -15 1 -15 -5 0 -6 -9 -8 -20 -4 -17 5 -20 2 -20 -23 0 -26 -3 -28 -30 -24
-25 4 -30 1 -30 -17 0 -23 -10 -27 -28 -9 -9 9 -16 7 -32 -7 -14 -13 -29 -16
-55 -12 -19 3 -37 1 -40 -4 -4 -5 -19 -9 -35 -9 -19 0 -33 -7 -40 -20 -6 -12
-7 -20 -1 -20 5 0 7 -9 4 -20 -3 -11 -14 -20 -24 -20 -11 0 -19 -4 -19 -10 0
-5 8 -10 18 -10 22 0 42 -44 42 -93 0 -21 7 -45 15 -53 8 -9 15 -26 15 -39 0
-14 7 -46 16 -72 l16 -47 -28 -24 c-17 -15 -30 -20 -32 -13 -2 6 -14 11 -27
11 -19 0 -24 -7 -29 -45 -7 -43 5 -85 23 -85 5 0 11 -10 14 -22 3 -13 14 -47
25 -75 11 -29 18 -62 15 -73 -4 -14 0 -20 11 -20 9 0 16 -8 16 -20 0 -28 20
-25 21 3 1 16 2 18 6 5 2 -10 10 -18 17 -18 7 0 18 -11 24 -25 6 -14 18 -25
27 -25 9 0 15 -9 15 -24 0 -13 7 -27 16 -30 8 -3 12 -2 9 4 -11 17 9 11 47
-15 20 -14 43 -25 51 -25 8 0 17 -9 20 -20 3 -13 14 -20 31 -20 15 0 38 -12
56 -30 20 -19 41 -30 59 -30 25 0 28 -3 23 -22 -5 -20 -4 -21 11 -10 22 18 40
5 34 -25 -3 -15 0 -22 7 -20 6 2 16 -3 23 -12 17 -21 17 -91 1 -91 -9 0 -8 -3
2 -10 23 -15 9 -19 -85 -25 -49 -3 -94 -10 -101 -16 -8 -6 -55 -10 -111 -9
-113 2 -233 -9 -233 -21 0 -4 -9 -7 -20 -6 -11 1 -20 5 -20 9 0 12 -92 10
-129 -3 -21 -7 -35 -8 -44 -1 -10 8 -119 20 -196 22 -7 0 -11 6 -8 13 3 8 0
14 -6 15 -42 3 -120 21 -126 28 -3 5 -83 11 -177 13 -153 3 -173 1 -181 -14
-7 -12 -25 -17 -64 -18 -47 -2 -54 -5 -57 -24 -5 -34 -26 -44 -94 -47 -57 -2
-63 -4 -66 -24 -3 -20 -13 -27 -35 -23 -5 1 -27 -14 -49 -34 -23 -19 -45 -35
-49 -35 -3 0 -16 -15 -29 -32 -12 -18 -40 -44 -62 -58 -29 -19 -38 -30 -34
-44 3 -12 -5 -33 -19 -52 -14 -18 -25 -37 -25 -43 0 -6 -5 -10 -11 -9 -7 2
-17 -19 -23 -47 -14 -57 -32 -95 -46 -95 -6 0 -10 -9 -10 -19 0 -11 -5 -23
-10 -26 -6 -4 -8 -11 -4 -16 3 -6 -2 -13 -12 -15 -21 -6 -49 -60 -59 -112 -5
-24 -2 -40 12 -60 10 -15 20 -38 23 -52 3 -14 10 -25 17 -25 6 0 26 -15 44
-32 65 -63 107 -93 128 -93 11 0 21 -5 21 -10 0 -6 11 -16 25 -22 15 -7 24
-17 21 -25 -3 -8 2 -13 13 -13 10 0 24 -7 31 -15 7 -8 18 -15 25 -15 8 0 16
-13 20 -30 8 -35 15 -41 56 -42 18 -1 25 -4 18 -9 -9 -5 -8 -11 4 -23 8 -9 20
-16 26 -16 13 0 24 -37 16 -51 -4 -6 1 -13 11 -15 11 -3 30 -29 44 -59 14 -30
30 -55 35 -55 6 0 16 -13 22 -30 6 -17 19 -30 28 -30 15 0 16 -7 11 -44 -4
-27 -3 -47 4 -51 5 -3 10 -15 10 -26 0 -10 5 -19 10 -19 18 0 11 -29 -10 -40
-11 -6 -20 -15 -20 -21 0 -6 9 -13 20 -16 20 -5 29 -33 10 -33 -5 0 -10 -6
-10 -14 0 -7 -10 -20 -22 -29 -13 -8 -20 -18 -16 -22 4 -4 13 -3 20 3 9 7 18
7 31 -2 25 -19 21 -24 -20 -31 -61 -10 -172 -46 -179 -57 -4 -6 -1 -14 7 -18
9 -6 5 -11 -14 -15 -15 -4 -27 -11 -27 -16 0 -5 -6 -9 -12 -9 -7 0 -26 -12
-42 -26 -24 -21 -28 -30 -23 -60 6 -36 -1 -40 -60 -35 -25 2 -29 -9 -12 -26 6
-6 8 -17 4 -23 -6 -9 -10 -9 -16 1 -6 10 -9 8 -9 -8 0 -19 -6 -23 -30 -23 -16
0 -30 -5 -30 -11 0 -5 -4 -8 -10 -4 -11 7 -50 -30 -50 -48 0 -7 -16 -19 -35
-26 -24 -8 -35 -19 -35 -32 0 -10 -4 -19 -10 -19 -18 0 -10 -18 10 -23 35 -9
23 -35 -22 -48 -43 -11 -68 -5 -76 20 -3 10 4 11 27 6 28 -6 31 -4 31 19 0 28
-9 33 -27 15 -8 -8 -17 -7 -33 4 -12 9 -28 13 -36 10 -8 -3 -17 2 -20 11 -8
21 -42 21 -65 0 -20 -18 -39 -11 -39 16 0 53 -73 16 -86 -44 -6 -26 -8 -28
-14 -12 -5 14 -9 16 -14 7 -5 -7 -6 -15 -2 -18 7 -8 -42 -103 -54 -103 -6 0
-10 -9 -10 -20 0 -14 -5 -18 -17 -14 -16 5 -16 4 1 -10 16 -13 20 -13 33 0 19
18 23 18 23 -4 0 -32 -55 -46 -180 -44 -120 2 -180 14 -180 37 0 7 -15 16 -32
19 -94 19 -266 22 -282 6 -13 -13 -53 -13 -61 0 -3 5 -15 10 -25 10 -10 0 -32
12 -47 26 -23 21 -29 23 -31 10 -4 -20 -21 -21 -28 -1 -4 8 -18 15 -33 15 -17
0 -22 -3 -13 -8 9 -6 6 -12 -13 -20 -14 -6 -25 -18 -25 -27 0 -9 -9 -15 -25
-15 -19 0 -25 -5 -25 -22 0 -12 -11 -50 -25 -85 -32 -79 -27 -133 11 -133 21
0 23 -4 18 -24 -3 -13 -1 -32 4 -43 5 -10 13 -35 16 -57 6 -33 5 -38 -9 -32
-9 3 -13 2 -10 -4 6 -10 -63 -32 -77 -24 -4 3 -8 -1 -8 -8 0 -10 -11 -12 -40
-10 -43 4 -54 -11 -24 -33 14 -10 12 -14 -20 -29 -40 -19 -46 -35 -16 -43 16
-4 20 -14 20 -44 0 -22 -4 -39 -10 -39 -5 0 -10 7 -10 16 0 11 -5 14 -16 10
-9 -3 -18 -6 -20 -6 -2 0 -4 -7 -4 -15 0 -8 -4 -15 -10 -15 -5 0 -10 18 -10
41 0 24 -4 38 -10 34 -5 -3 -10 -23 -10 -44 0 -39 -14 -61 -39 -61 -20 0 -81
-70 -87 -101 -4 -15 -13 -25 -22 -25 -63 0 -81 -5 -76 -18 7 -19 -36 -62 -58
-58 -12 2 -19 -6 -23 -32 -5 -25 -11 -33 -22 -29 -13 5 -14 -1 -8 -35 5 -34 4
-42 -9 -42 -8 0 -20 -8 -25 -17 -6 -10 -11 -13 -11 -8 0 6 -10 16 -21 24 -20
12 -21 11 -16 -15 3 -20 -1 -33 -20 -50 -14 -13 -23 -29 -21 -36 3 -7 -6 -24
-18 -37 -13 -14 -26 -37 -29 -52 -7 -29 -43 -59 -71 -59 -11 0 -14 -5 -10 -16
4 -11 -1 -18 -14 -21 -11 -3 -20 -10 -20 -15 0 -5 -11 -19 -25 -32 -14 -13
-25 -31 -25 -40 0 -35 -20 -58 -46 -52 -18 5 -22 3 -18 -9 4 -8 1 -15 -5 -15
-11 0 -31 -37 -37 -70 -2 -8 -8 -16 -13 -18 -6 -2 -11 -15 -11 -28 0 -13 -4
-24 -10 -24 -5 0 -10 9 -10 20 0 11 -4 20 -10 20 -5 0 -10 -11 -10 -24 0 -13
-7 -27 -16 -30 -8 -3 -12 -11 -8 -18 4 -6 6 -37 5 -70 -1 -37 2 -58 9 -58 6 0
8 -5 4 -11 -4 -8 -9 -7 -15 2 -6 10 -10 9 -15 -5 -4 -11 -1 -28 6 -40 7 -11
13 -41 12 -66 -1 -41 0 -43 10 -20 10 23 11 23 16 5 7 -32 23 -47 37 -35 8 7
15 3 22 -13 21 -43 23 -57 8 -57 -18 0 -20 -39 -2 -42 6 0 17 -2 23 -2 18 -2
45 -34 32 -38 -24 -8 2 -59 39 -74 l36 -15 -6 -72 c-2 -39 -10 -73 -16 -75
-16 -5 -14 -58 3 -75 15 -14 11 -57 -4 -57 -4 0 -11 11 -14 25 -4 14 -12 25
-19 25 -9 0 -11 -23 -9 -84 3 -73 1 -87 -16 -104 -14 -14 -18 -30 -16 -52 2
-17 -3 -45 -12 -62 -11 -22 -13 -33 -5 -41 18 -18 13 -35 -11 -39 -13 -2 -22
-9 -20 -16 1 -6 -5 -12 -13 -12 -8 0 -15 -5 -15 -10 0 -6 6 -10 13 -9 25 3 38
-1 32 -11 -3 -5 -24 -10 -45 -10 -21 0 -42 -4 -45 -10 -5 -9 11 -15 60 -22 24
-4 33 -55 15 -87 -9 -18 -7 -22 22 -34 33 -13 33 -14 11 -26 -13 -6 -23 -18
-23 -26 0 -20 19 -19 26 0 7 18 30 20 37 3 4 -10 6 -10 6 0 1 6 8 12 17 12 13
0 14 -3 4 -15 -10 -12 -9 -16 5 -21 11 -4 15 -14 11 -27 -4 -18 -1 -19 36 -14
36 5 44 2 67 -24 33 -37 64 -40 55 -4 -5 21 -3 25 15 25 13 0 26 -10 33 -25
l11 -25 3859 0 3858 0 0 450 0 449 -22 13 c-13 7 -30 12 -38 13 -8 0 -16 10
-18 22 -5 36 -61 86 -88 79 -31 -8 -54 3 -65 30 -5 14 -17 25 -29 25 -11 1
-24 3 -30 4 -5 1 -14 3 -20 4 -5 0 -13 19 -16 42 -5 28 -11 38 -20 35 -8 -4
-20 -9 -28 -12 -9 -3 -17 3 -21 15 -4 14 -15 21 -32 21 -24 0 -25 2 -20 41 6
48 -9 99 -30 99 -8 0 -13 7 -11 17 2 12 12 17 28 16 78 -5 108 -4 138 2 26 6
32 4 32 -9 0 -11 9 -16 31 -16 17 0 28 -4 24 -10 -3 -5 1 -10 9 -10 23 0 19
-21 -4 -27 -12 -3 -19 -11 -17 -17 4 -10 28 -14 122 -19 40 -2 99 -37 62 -37
-9 0 -17 -5 -17 -11 0 -7 9 -9 23 -5 12 3 30 6 40 6 16 0 17 30 17 485 l0 484
-30 16 c-16 8 -36 15 -45 15 -9 0 -35 19 -58 43 -24 23 -59 50 -80 59 -20 10
-37 24 -37 32 0 7 -18 21 -40 30 -23 9 -44 24 -47 34 -9 24 -39 62 -45 57 -3
-3 -22 11 -42 31 -30 29 -36 41 -31 63 4 20 -2 33 -25 58 -16 18 -30 40 -30
50 0 11 -5 24 -11 30 -8 8 -8 22 0 49 21 75 8 92 -44 58 -22 -14 -24 -14 -35
6 -6 11 -8 24 -5 29 3 5 -3 7 -13 4 -10 -2 -24 2 -31 11 -7 8 -19 12 -27 9
-10 -3 -14 2 -14 19 0 13 -5 29 -12 36 -9 9 -9 12 0 12 7 0 12 7 12 15 0 11
-12 15 -44 15 -41 0 -43 1 -38 25 4 21 1 25 -19 25 -14 0 -43 17 -68 40 -24
22 -53 40 -65 40 -12 0 -30 11 -40 25 -11 14 -25 24 -33 21 -8 -3 -13 2 -13
14 0 13 -7 20 -18 20 -10 0 -23 5 -28 10 -7 7 -16 4 -29 -10 -22 -25 -60 -26
-74 -2 -6 9 -11 13 -11 8 0 -5 -7 -3 -15 4 -12 10 -19 10 -27 2 -14 -14 -68
-16 -68 -3 0 5 -23 17 -50 26 -28 9 -48 21 -44 26 11 19 -31 8 -54 -13 -21
-21 -24 -21 -33 -6 -5 9 -26 22 -47 28 -20 6 -53 19 -72 27 -81 37 -204 56
-212 32 -5 -15 -69 -14 -78 1 -5 8 -7 17 -5 21 9 14 -92 -4 -124 -23 -39 -22
-61 -18 -61 12 0 18 -3 19 -20 10 -11 -6 -20 -7 -20 -3 0 4 -7 -3 -16 -15 -10
-15 -26 -22 -47 -22 -24 0 -28 -3 -17 -10 8 -5 25 -10 38 -10 12 0 22 -4 22
-9 0 -17 -55 -36 -112 -39 -64 -3 -81 14 -20 21 l37 4 -40 0 c-22 0 -48 4 -58
8 -9 4 -27 5 -39 2 -14 -4 -26 0 -34 11 -9 11 -13 12 -14 5 0 -24 -38 -14 -44
11 -5 19 -15 26 -48 32 l-43 7 33 9 c17 5 32 11 32 13 0 3 -12 2 -26 -1 -20
-5 -26 -2 -31 15 -5 20 -7 20 -28 7 -13 -9 -27 -11 -36 -6 -7 5 -16 5 -19 1
-3 -5 -16 -4 -30 2 l-25 11 28 4 c15 2 27 8 27 14 0 7 -14 8 -40 4 -32 -5 -40
-3 -40 9 0 17 1 17 -95 21 -134 6 -150 9 -188 38 -29 22 -37 25 -37 12 0 -9
-2 -16 -4 -16 -13 0 -72 25 -77 33 -4 5 -15 4 -26 -4 -13 -7 -28 -9 -39 -4
-11 4 -27 7 -36 6 -12 -1 -15 3 -11 19 3 11 0 20 -6 20 -6 0 -11 -7 -11 -15 0
-8 -7 -15 -15 -15 -8 0 -15 4 -15 9 0 5 -36 11 -81 13 -56 2 -84 8 -92 18 -20
25 -63 42 -106 44 -32 0 -41 5 -41 18 0 22 -13 23 -30 3 -9 -11 -17 -12 -31
-4 -15 8 -65 15 -123 19 -4 0 -6 9 -3 20 8 32 -65 28 -100 -5 -20 -18 -30 -21
-40 -13 -15 12 -17 38 -3 38 6 0 10 4 10 9 0 5 -11 4 -25 -2 -15 -8 -25 -20
-25 -34 0 -27 -18 -40 -26 -19 -3 9 -10 14 -14 11 -5 -3 -12 -1 -15 5 -4 7
-14 3 -26 -11 -19 -22 -20 -22 -34 -3 -13 17 -16 17 -26 4 -8 -11 -12 -12 -16
-2 -7 18 -33 15 -33 -4 0 -14 -10 -15 -77 -9 -90 8 -93 9 -93 36 0 10 -4 19
-10 19 -5 0 -10 -9 -10 -20 0 -11 5 -20 10 -20 6 0 10 -12 10 -27 0 -37 -15
-18 -28 36 -12 49 -2 81 25 81 13 0 13 3 3 15 -10 12 -10 15 1 15 14 0 -22 25
-54 36 -14 5 -16 13 -11 43 4 20 8 44 9 55 1 10 14 25 28 33 15 7 27 20 27 28
0 23 19 18 44 -12 24 -28 46 -25 46 6 0 14 6 17 26 13 14 -2 36 1 49 8 13 7
31 10 39 7 25 -10 46 3 46 28 0 18 -4 21 -25 17 -15 -2 -25 0 -25 7 0 11 13
15 38 12 6 -1 12 5 12 14 0 8 8 15 18 15 12 0 14 2 4 8 -16 11 -5 40 18 47 12
4 23 24 31 55 7 28 18 50 25 50 7 0 22 15 33 34 12 19 28 37 37 40 8 3 13 10
10 15 -3 5 4 12 17 15 20 7 20 8 4 14 -15 7 -12 10 17 22 20 7 36 17 36 21 0
4 9 10 19 14 22 7 91 70 91 83 0 10 94 52 115 52 7 0 18 7 25 15 7 8 23 15 36
15 25 0 33 15 12 23 -7 2 1 4 17 5 51 1 96 14 102 28 3 8 17 14 32 14 37 0
101 19 101 30 0 6 11 10 24 10 13 0 29 7 36 15 7 8 18 15 26 15 7 0 18 9 24
19 5 11 19 22 29 26 10 3 26 21 36 40 9 19 22 35 30 35 20 0 42 55 49 119 3
34 12 58 23 67 17 13 17 13 -1 14 -17 0 -18 6 -11 81 5 60 3 84 -6 89 -8 6 -4
13 15 25 14 10 26 26 26 36 0 29 40 23 77 -11 19 -17 30 -35 27 -44 -3 -8 -1
-17 5 -21 6 -3 11 -14 11 -24 0 -19 53 -48 78 -43 6 2 12 -2 12 -8 0 -5 6 -10
14 -10 8 0 30 -9 48 -19 43 -25 143 -47 230 -52 15 -1 28 -9 31 -19 6 -23 92
-40 207 -41 52 0 112 -7 135 -14 24 -8 119 -16 235 -20 107 -4 200 -10 205
-13 6 -4 39 -8 74 -9 35 -2 118 -10 185 -19 66 -9 140 -17 164 -19 24 -1 62
-10 85 -18 38 -14 117 -27 252 -42 27 -3 56 -12 65 -20 9 -8 33 -15 53 -15 20
0 38 -4 41 -9 3 -4 22 -11 43 -14 21 -3 82 -13 136 -21 97 -15 163 -16 186 -2
6 4 15 4 21 1 12 -7 50 12 50 26 0 5 11 22 25 37 14 15 25 34 25 43 0 11 10
16 31 17 30 1 43 6 45 20 8 40 18 52 45 52 17 0 32 7 38 18 7 14 18 18 40 14
l31 -4 0 461 c0 361 -3 461 -12 462 -7 1 -24 3 -38 4 -22 2 -30 11 -32 32 0 5
-9 14 -19 21 -11 7 -19 20 -19 29 0 19 -28 42 -53 43 -10 0 -21 8 -24 18 -11
27 -29 42 -62 48 -21 5 -31 12 -31 25 0 12 -7 19 -20 19 -12 0 -20 7 -20 16 0
24 -27 45 -63 49 -41 4 -68 15 -62 25 3 5 -5 12 -17 15 -13 4 -32 15 -43 25
-18 15 -81 45 -97 45 -3 0 -25 17 -48 38 -23 20 -47 37 -53 37 -7 0 -23 12
-36 25 -12 14 -27 23 -31 20 -5 -3 -12 0 -15 6 -4 5 -13 8 -21 5 -7 -3 -26 1
-41 9 -15 8 -34 15 -42 15 -8 0 -11 6 -7 15 5 15 -8 20 -46 17 -11 -1 -15 4
-12 12 7 19 -14 30 -31 16 -9 -7 -15 -8 -20 0 -3 5 -1 10 4 10 6 0 11 9 11 20
0 11 -3 19 -7 18 -12 -3 -83 35 -83 44 0 4 -7 8 -15 8 -7 0 -18 6 -22 14 -9
16 -66 46 -86 46 -8 0 -20 7 -27 15 -8 9 -29 15 -55 15 -51 0 -77 8 -69 21 3
6 -5 7 -20 3 -23 -5 -26 -3 -26 20 0 16 -6 26 -15 26 -7 0 -18 6 -22 13 -9 15
-43 30 -43 19 0 -11 -112 -3 -137 10 -13 6 -23 18 -23 27 0 12 -3 12 -12 3
-18 -18 -35 -14 -41 9 -5 17 -11 21 -33 16 -15 -3 -44 2 -63 10 -49 21 -68 28
-128 49 -29 10 -53 23 -53 30 0 7 -11 35 -25 63 -17 34 -32 51 -48 53 -14 2
-22 10 -22 23 0 24 -18 45 -39 45 -9 0 -16 6 -16 14 0 8 -9 18 -20 21 -11 3
-20 11 -20 16 0 5 -27 9 -60 9 -37 0 -60 4 -60 11 0 7 -9 5 -24 -4 -23 -15
-25 -15 -40 6 -13 19 -15 19 -15 5 -1 -14 -10 -18 -38 -18 -28 0 -42 7 -64 31
-27 31 -28 31 -57 13 -33 -19 -61 -13 -69 14 -4 15 -11 17 -46 12 -35 -5 -45
-2 -62 17 -17 18 -26 21 -50 15 -17 -5 -30 -15 -30 -23 0 -25 -31 -21 -44 7
-11 26 -14 26 -71 21 -53 -4 -60 -3 -60 13 0 26 -31 35 -37 11 -8 -31 -103
-38 -103 -7 0 6 -5 18 -10 26 -9 13 -11 13 -21 0 -8 -11 -12 -12 -16 -2 -5 14
-10 14 -40 2z m7 -1460 c-20 -13 -40 -13 -40 0 0 6 12 10 28 10 21 0 24 -2 12
-10z m-70 -60 c0 -11 -4 -20 -10 -20 -5 0 -10 9 -10 20 0 11 5 20 10 20 6 0
10 -9 10 -20z m99 12 c24 -2 28 -6 24 -22 -6 -22 -28 -27 -39 -8 -5 8 -11 6
-20 -6 -14 -20 -34 -13 -34 12 0 15 -2 15 -10 2 -8 -12 -10 -11 -10 6 0 17 6
21 30 19 17 -1 43 -2 59 -3z m-299 -92 c0 -5 -4 -10 -10 -10 -5 0 -10 5 -10
10 0 6 5 10 10 10 6 0 10 -4 10 -10z m260 -5 c0 -8 -4 -15 -9 -15 -13 0 -22
16 -14 24 11 11 23 6 23 -9z m240 -450 c0 -2 -5 -16 -12 -30 -10 -23 -13 -24
-29 -9 -14 13 -15 19 -6 30 11 12 47 20 47 9z m-2330 -1619 c0 -11 -19 -15
-25 -6 -3 5 1 10 9 10 9 0 16 -2 16 -4z m-30 -111 c0 -19 -20 -29 -32 -17 -8
8 -7 16 2 26 14 17 30 12 30 -9z m2560 -166 c0 -5 -4 -9 -10 -9 -5 0 -10 7
-10 16 0 8 5 12 10 9 6 -3 10 -10 10 -16z m-3170 -79 c0 -5 -4 -10 -9 -10 -6
0 -13 5 -16 10 -3 6 1 10 9 10 9 0 16 -4 16 -10z m3840 -14 c0 -3 -4 -8 -10
-11 -5 -3 -10 -1 -10 4 0 6 5 11 10 11 6 0 10 -2 10 -4z m-147 -93 c-13 -2
-33 -2 -45 0 -13 2 -3 4 22 4 25 0 35 -2 23 -4z m-23 -23 c0 -5 -2 -10 -4 -10
-3 0 -8 5 -11 10 -3 6 -1 10 4 10 6 0 11 -4 11 -10z m1770 -580 c0 -5 -4 -10
-10 -10 -5 0 -10 5 -10 10 0 6 5 10 10 10 6 0 10 -4 10 -10z m463 -407 c-7 -2
-19 -2 -25 0 -7 3 -2 5 12 5 14 0 19 -2 13 -5z m-468 -753 c4 -6 -6 -10 -22
-10 -22 0 -25 2 -13 10 19 12 27 12 35 0z m248 -7 c-7 -2 -19 -2 -25 0 -7 3
-2 5 12 5 14 0 19 -2 13 -5z m-28 -23 c3 -5 -1 -10 -9 -10 -9 0 -16 5 -16 10
0 6 4 10 9 10 6 0 13 -4 16 -10z m100 -90 c-3 -5 -10 -10 -16 -10 -5 0 -9 5
-9 10 0 6 7 10 16 10 8 0 12 -4 9 -10z m-7798 -82 c-3 -8 -6 -5 -6 6 -1 11 2
17 5 13 3 -3 4 -12 1 -19z m53 -532 c0 -11 -19 -15 -25 -6 -3 5 1 10 9 10 9 0
16 -2 16 -4z m21 -559 c-10 -9 -11 -8 -5 6 3 10 9 15 12 12 3 -3 0 -11 -7 -18z
m76 7 c-3 -3 -12 -4 -19 -1 -8 3 -5 6 6 6 11 1 17 -2 13 -5z"/>
<path d="M5128 7013 c7 -3 16 -2 19 1 4 3 -2 6 -13 5 -11 0 -14 -3 -6 -6z"/>
<path d="M5130 6949 c-14 -6 -39 -8 -57 -5 -21 3 -36 0 -44 -10 -8 -10 -8 -14
0 -14 6 0 11 -19 11 -47 0 -30 3 -43 9 -35 7 11 10 10 15 -3 3 -9 6 -28 6 -41
0 -14 4 -22 10 -19 6 3 10 22 10 41 0 19 5 34 10 34 6 0 10 -20 10 -45 0 -31
-5 -47 -17 -54 -14 -7 -15 -12 -4 -25 7 -8 9 -20 5 -27 -5 -9 1 -10 22 -5 19
4 24 3 15 -3 -11 -7 -10 -11 5 -20 19 -10 15 -13 -18 -15 -27 -2 -25 -20 4
-30 32 -11 78 0 78 19 0 8 5 15 10 15 6 0 10 7 10 15 0 11 11 15 40 15 27 0
43 -5 46 -15 4 -8 10 -15 15 -15 5 0 9 7 9 15 0 8 -4 15 -10 15 -5 0 -10 7
-10 15 0 9 -9 25 -20 37 -10 12 -17 24 -15 28 3 4 -5 10 -16 13 -12 3 -19 11
-16 19 5 16 -20 68 -33 68 -5 0 -9 8 -8 18 4 53 -2 72 -24 71 -13 0 -34 -5
-48 -10z"/>
<path d="M2717 6798 c3 -15 -3 -27 -16 -35 -17 -11 -22 -10 -30 6 -6 10 -7 21
-4 25 3 3 -1 6 -10 6 -9 0 -17 -7 -17 -15 0 -9 -9 -15 -21 -15 -18 0 -20 -4
-14 -30 6 -26 4 -30 -14 -30 -11 0 -24 6 -28 14 -5 9 -31 17 -63 21 -40 5 -51
4 -40 -4 12 -9 10 -11 -12 -11 -15 0 -29 4 -32 9 -5 8 -187 14 -478 15 -53 0
-94 4 -92 8 3 4 -1 6 -8 3 -16 -6 -122 -16 -166 -15 -18 0 -72 -9 -120 -21
-48 -12 -99 -21 -114 -21 -14 1 -29 -5 -32 -13 -3 -10 -20 -15 -46 -15 -41 0
-79 -14 -92 -33 -6 -10 -26 -17 -55 -19 -7 -1 -13 -5 -13 -10 0 -4 -12 -8 -26
-8 -14 0 -34 -5 -44 -10 -13 -7 -21 -7 -26 1 -4 8 -9 7 -14 -2 -5 -7 -15 -14
-24 -15 -8 -1 -30 -14 -49 -28 -19 -14 -46 -26 -60 -26 -17 0 -27 -5 -27 -15
0 -8 -6 -15 -12 -15 -7 0 -24 -16 -37 -35 -13 -19 -29 -35 -36 -35 -7 0 -15
-9 -18 -20 -3 -11 -9 -20 -14 -19 -20 3 -51 -14 -47 -26 3 -7 -3 -16 -14 -19
-11 -4 -22 -16 -25 -26 -3 -11 -12 -20 -21 -20 -11 0 -16 -9 -16 -30 0 -31
-20 -43 -21 -12 0 13 -2 12 -9 -5 -5 -12 -18 -28 -30 -35 -12 -8 -20 -23 -20
-41 0 -25 -3 -27 -27 -21 -22 6 -25 4 -19 -11 7 -20 -19 -55 -42 -55 -12 0
-14 -10 -8 -55 5 -46 3 -57 -10 -62 -13 -5 -15 -15 -11 -47 3 -23 3 -35 0 -28
-4 10 -8 10 -19 1 -17 -14 -18 -55 -1 -63 9 -5 9 -7 0 -12 -9 -4 -10 -10 -1
-24 9 -14 9 -22 -1 -33 -7 -9 -12 -42 -12 -74 1 -166 -1 -213 -10 -219 -5 -3
-9 -19 -9 -35 0 -20 4 -28 11 -23 9 5 10 -1 5 -22 -25 -106 -28 -137 -21 -244
4 -63 8 -127 8 -142 0 -16 5 -28 13 -28 7 0 22 -12 34 -27 17 -22 23 -25 30
-13 8 13 10 13 10 1 0 -11 3 -12 11 -4 8 8 19 9 37 2 14 -5 69 -8 123 -5 54 2
98 1 97 -3 -2 -21 7 -26 53 -28 42 -1 48 0 35 10 -14 10 -8 12 30 8 31 -2 42
-6 33 -12 -9 -6 -10 -9 -2 -9 6 0 15 5 18 10 4 6 16 8 27 4 11 -3 23 -1 27 4
3 6 26 13 49 16 23 3 54 14 69 25 18 15 40 21 74 21 29 0 49 5 49 11 0 6 6 9
13 6 6 -2 27 2 45 9 18 7 39 11 47 7 9 -3 21 -1 28 5 6 5 37 12 67 16 131 16
145 18 150 26 11 17 60 23 158 21 56 -1 102 1 102 6 0 4 50 9 110 10 70 1 116
6 125 13 8 7 26 10 41 7 40 -7 400 10 421 21 17 9 40 14 132 29 19 3 46 16 60
29 14 13 29 24 33 24 4 0 12 16 19 35 8 22 22 38 35 41 12 3 34 24 50 46 16
22 39 49 52 61 12 11 22 27 22 34 0 7 6 13 13 13 9 0 14 16 14 52 1 28 6 54
11 57 9 6 21 78 28 166 2 28 6 65 9 83 4 19 1 39 -5 47 -6 7 -13 37 -17 66 -3
30 -10 56 -14 59 -4 3 -12 34 -18 69 -6 36 -14 67 -19 70 -5 3 -13 33 -17 66
-4 33 -11 65 -17 72 -10 13 -17 43 -23 103 -2 19 -8 36 -14 38 -6 2 -16 22
-21 44 -10 33 -9 43 5 58 16 18 16 20 -4 41 -12 13 -21 28 -21 35 0 7 -11 25
-24 41 -12 15 -21 34 -19 41 3 6 0 12 -5 12 -6 0 -12 -6 -15 -12 -2 -8 -8 -9
-13 -4 -5 5 -4 11 4 13 19 7 14 31 -8 38 -11 3 -20 11 -20 16 0 7 -12 8 -30 4
-26 -6 -30 -4 -30 14 0 14 8 23 25 27 29 7 31 16 9 38 -20 21 -22 20 -17 -6z
m-76 -71 c-10 -9 -11 -8 -5 6 3 10 9 15 12 12 3 -3 0 -11 -7 -18z m-1417 -750
c3 -13 17 -36 30 -50 14 -15 23 -27 22 -27 -2 0 0 -15 4 -34 6 -27 5 -33 -6
-29 -7 2 -27 -9 -43 -26 -17 -18 -31 -27 -31 -21 0 16 -68 12 -77 -5 -5 -9
-13 -11 -22 -6 -11 7 -10 14 5 37 11 15 13 25 7 21 -9 -6 -13 -1 -13 17 0 14
5 26 11 26 5 0 7 5 4 10 -4 6 -11 8 -16 4 -12 -7 -39 14 -39 31 0 6 12 17 26
23 14 7 22 17 19 22 -4 6 6 10 22 10 15 0 35 5 43 10 26 16 48 11 54 -13z
m-335 -157 c24 -12 45 -64 37 -93 -3 -13 -1 -40 5 -60 8 -31 13 -36 27 -28 33
17 66 8 81 -23 12 -26 12 -33 -3 -61 -33 -60 -107 -146 -141 -162 -31 -15 -35
-15 -66 3 -47 28 -71 102 -70 216 0 75 4 94 26 134 25 45 61 83 78 84 5 0 16
-4 26 -10z"/>
<path d="M8020 6740 c0 -5 7 -10 15 -10 8 0 15 5 15 10 0 6 -7 10 -15 10 -8 0
-15 -4 -15 -10z"/>
<path d="M295 5381 c-3 -5 -1 -12 5 -16 5 -3 10 1 10 9 0 18 -6 21 -15 7z"/>
<path d="M5082 3878 c2 -6 10 -14 16 -16 7 -2 10 2 6 12 -7 18 -28 22 -22 4z"/>
<path d="M5121 3874 c0 -11 3 -14 6 -6 3 7 2 16 -1 19 -3 4 -6 -2 -5 -13z"/>
<path d="M5080 3841 c0 -6 5 -13 10 -16 6 -3 10 1 10 9 0 9 -4 16 -10 16 -5 0
-10 -4 -10 -9z"/>
<path d="M9346 3777 c-14 -10 -17 -19 -11 -33 4 -10 7 -27 6 -36 -2 -12 5 -18
18 -18 25 0 29 -37 6 -47 -24 -9 -50 -64 -35 -73 17 -11 2 -32 -18 -26 -22 7
-44 -7 -41 -25 2 -8 0 -30 -4 -50 -5 -23 -3 -47 5 -64 18 -41 66 -85 99 -92
18 -3 26 -10 22 -19 -3 -8 0 -14 6 -14 8 0 11 67 11 226 l0 226 -27 -5 -28 -6
28 12 c20 8 27 17 25 32 -4 24 -36 31 -62 12z"/>
<path d="M5142 3690 c0 -14 2 -19 5 -12 2 6 2 18 0 25 -3 6 -5 1 -5 -13z"/>
<path d="M3535 3420 c-8 -12 20 -24 35 -15 6 3 8 11 5 16 -8 12 -32 12 -40 -1z"/>
<path d="M3608 3413 c7 -3 16 -2 19 1 4 3 -2 6 -13 5 -11 0 -14 -3 -6 -6z"/>
<path d="M7430 3340 c0 -5 7 -10 16 -10 8 0 12 5 9 10 -3 6 -10 10 -16 10 -5
0 -9 -4 -9 -10z"/>
<path d="M7128 3253 c7 -3 16 -2 19 1 4 3 -2 6 -13 5 -11 0 -14 -3 -6 -6z"/>
<path d="M2707 3200 c3 -11 7 -20 9 -20 2 0 4 9 4 20 0 11 -4 20 -9 20 -5 0
-7 -9 -4 -20z"/>
<path d="M8995 3140 c5 -35 14 -52 43 -77 42 -37 57 -40 70 -17 8 14 11 14 18
3 12 -20 12 -59 -1 -60 -10 -2 73 -16 134 -24 18 -2 36 -6 39 -9 3 -3 11 -1
18 5 9 8 17 1 29 -25 10 -20 21 -36 25 -36 5 0 15 -3 24 -6 14 -5 16 8 16 110
l0 116 -27 1 c-16 0 -56 0 -90 -1 -65 -1 -75 4 -46 25 15 11 10 13 -35 12 -28
-1 -52 -6 -52 -10 0 -5 -8 -7 -17 -6 -10 1 -26 -1 -36 -6 -13 -5 -25 1 -45 23
-18 20 -36 30 -51 29 -21 -1 -22 -5 -16 -47z"/>
<path d="M9383 3173 c-31 -6 -29 -23 2 -23 16 0 25 6 25 15 0 8 -1 14 -2 14
-2 -1 -13 -4 -25 -6z"/>
<path d="M9388 3133 c7 -3 16 -2 19 1 4 3 -2 6 -13 5 -11 0 -14 -3 -6 -6z"/>
<path d="M2288 2763 c6 -2 18 -2 25 0 6 3 1 5 -13 5 -14 0 -19 -2 -12 -5z"/>
<path d="M2160 2705 c0 -8 4 -15 10 -15 5 0 7 7 4 15 -4 8 -8 15 -10 15 -2 0
-4 -7 -4 -15z"/>
<path d="M1425 1761 c-3 -5 -1 -12 5 -16 5 -3 10 1 10 9 0 18 -6 21 -15 7z"/>
<path d="M9263 1223 c-18 -7 -16 -23 2 -23 8 0 15 7 15 15 0 8 -1 15 -2 14 -2
0 -9 -3 -15 -6z"/>
<path d="M1345 1200 c3 -5 8 -10 11 -10 2 0 4 5 4 10 0 6 -5 10 -11 10 -5 0
-7 -4 -4 -10z"/>
<path d="M9340 1169 c0 -5 5 -7 10 -4 7 4 9 -3 5 -22 -5 -26 -5 -26 5 -5 10
25 6 42 -11 42 -5 0 -9 -5 -9 -11z"/>
<path d="M9112 1118 c3 -7 15 -14 29 -16 23 -2 23 -2 5 13 -24 18 -39 20 -34
3z"/>
<path d="M1410 39 c0 -5 5 -7 10 -4 6 3 10 8 10 11 0 2 -4 4 -10 4 -5 0 -10
-5 -10 -11z"/>
<path d="M1520 16 c0 -9 5 -16 10 -16 6 0 10 4 10 9 0 6 -4 13 -10 16 -5 3
-10 -1 -10 -9z"/>
</g>
</svg>
